<svg version="1.2" xmlns="http://www.w3.org/2000/svg" viewBox="0 0 60 50" width="60" height="50">
	<title>beja-logo-svg</title>
	<defs>
		<clipPath clipPathUnits="userSpaceOnUse" id="cp1">
			<path d="m0.5 0h58.76v50h-58.76z"/>
		</clipPath>
	</defs>
	<style>
		.s0 { fill: #000080 } 
		.s1 { fill: #171717 } 
		.s2 { fill: #e30012 } 
	</style>
	<g id="Clip-Path" clip-path="url(#cp1)">
		<g id="Layer">
			<path id="Layer" class="s0" d="m25.6 0v9.6h7.9v31.9l8.5-7v-34.5z"/>
			<path id="Layer" class="s1" d="m59.3 25.5l-13.5 4.1 3.9 1.5-16.5 13.5-13.1-7.5-19.6 12.9 19.7-8.9 13.3 7.7 18.4-15 0.6 4.1z"/>
			<path id="Layer" class="s2" d="m14.9 11.8v8.4h7.3v15.6l0.6 0.3 2.8 1.6 5.7 3.3v-29.2z"/>
			<path id="Layer" class="s0" d="m20 22.4h-15.8v22.6l10.7-7.1 5.1-3.4z"/>
		</g>
	</g>
	<path id="Layer" fill-rule="evenodd" class="s1" d="m69.6 37v-21.6h8.6q2.4 0 3.8 0.9 1.4 0.9 2.1 2.3 0.6 1.4 0.6 2.9 0 1.8-0.8 3-0.5 0.7-1.2 1.1 1.3 0.5 2 1.6 1 1.5 1 3.3 0 1.9-0.7 3.4-0.7 1.4-2.2 2.3-1.4 0.8-3.6 0.8zm13.1-11.4q-0.5-0.2-1.1-0.3v0.8q0.6-0.2 1.1-0.5zm-9 7.6h5q0.8 0 1.5-0.4 0.6-0.3 1-1 0.4-0.6 0.4-1.5 0-0.8-0.3-1.4-0.4-0.6-1-0.9-0.6-0.4-1.6-0.4h-5zm0-9.3h4.5q0.6 0 1.2-0.2 0.5-0.3 0.8-0.8 0.4-0.5 0.4-1.3 0-1-0.7-1.6-0.6-0.7-1.7-0.7h-4.5zm22.5 13.6q-2.5 0-4.4-1.1-1.9-1-3-2.9-1-1.9-1-4.3 0-2.7 1-4.6 1.1-2 2.9-3.1 1.9-1.1 4.3-1.1 2.5 0 4.3 1.2 1.8 1.2 2.6 3.4 0.9 2.2 0.6 5.1h-1.9v-3h-2.2q-0.2-1.3-0.7-2.1-0.8-1-2.6-1-2 0-3 1.2-0.6 0.7-0.8 1.9h-1.5v3h1.4q0.2 1.5 0.9 2.4 1 1.2 2.9 1.2 1.2 0 2-0.5 0.9-0.5 1.3-1.5l4.1 1.1q-0.9 2.3-2.9 3.5-2 1.2-4.3 1.2zm3.3-7.4h-7.3q-0.1-0.5-0.1-1.1 0-1.1 0.2-1.9h7.1q0.1 0.7 0.1 1.5zm5 14.2v-3.8h0.7q1.4 0 1.9-0.7 0.6-0.6 0.6-1.8v-17.1h4.1v19.1q0 1.9-1.3 3.1-1.2 1.2-3.2 1.2zm3.1-25.7v-3.6h4.1v3.6zm12.8 18.9q-1.8 0-3-0.6-1.2-0.7-1.8-1.8-0.6-1.2-0.6-2.5 0-1.1 0.3-2.1 0.4-0.9 1.1-1.6 0.8-0.7 2.1-1.2 0.9-0.3 2.2-0.6 1.2-0.2 2.8-0.5 0.9-0.1 2-0.3-0.2-1-0.7-1.5-0.7-0.7-2.3-0.7-0.9 0-1.9 0.5-1 0.4-1.4 1.5l-3.6-1.2q0.6-2 2.3-3.2 1.7-1.3 4.6-1.3 2.1 0 3.8 0.7 1.7 0.6 2.5 2.3 0.5 0.9 0.6 1.8 0.1 0.9 0.1 2v9.9h-3.6v-2q-1 1.1-2 1.7-1.4 0.7-3.5 0.7zm5.1-11.2q0 0.3 0 0.6l1.5-0.8q-0.8 0.1-1.5 0.2zm0.4 8.8q0.3-0.3 0.5-0.7l-0.5-0.7zm-4.6-0.7q1.1 0 1.8-0.4 0.8-0.4 1.3-0.9 0.4-0.6 0.6-0.9 0.3-0.7 0.4-1.5 0-0.6 0-1-1 0.2-1.7 0.3-1.1 0.2-1.8 0.4-0.7 0.1-1.2 0.3-0.6 0.3-1 0.6-0.4 0.2-0.6 0.6-0.1 0.3-0.1 0.7 0 0.5 0.2 0.9 0.3 0.4 0.8 0.6 0.6 0.3 1.3 0.3zm4.1-4.7q0.6-0.1 1.2-0.2l-1.2-0.3q0 0.2 0 0.5z"/>
</svg>